<mxfile host="app.diagrams.net" modified="2021-11-15T16:02:09.384Z" agent="5.0 (Windows NT 10.0; Win64; x64) AppleWebKit/537.36 (KHTML, like Gecko) Chrome/95.0.4638.69 Safari/537.36" etag="Z-BFJHNkH6SCSkjELKNZ" version="15.7.4" type="github">
  <diagram id="zT2-I3nWxb7EVqe7vkg6" name="Page-1">
    <mxGraphModel dx="1422" dy="762" grid="1" gridSize="10" guides="1" tooltips="1" connect="1" arrows="1" fold="1" page="1" pageScale="1" pageWidth="850" pageHeight="1100" math="0" shadow="0">
      <root>
        <mxCell id="0" />
        <mxCell id="1" parent="0" />
        <mxCell id="NabtTSOFmGUarzjUIoSQ-25" style="edgeStyle=orthogonalEdgeStyle;rounded=0;orthogonalLoop=1;jettySize=auto;html=1;exitX=0;exitY=0.75;exitDx=0;exitDy=0;entryX=0.75;entryY=0;entryDx=0;entryDy=0;fontSize=16;startArrow=ERone;startFill=0;endArrow=ERzeroToMany;endFill=0;startSize=14;endSize=14;" edge="1" parent="1" source="NabtTSOFmGUarzjUIoSQ-1" target="NabtTSOFmGUarzjUIoSQ-10">
          <mxGeometry relative="1" as="geometry" />
        </mxCell>
        <mxCell id="NabtTSOFmGUarzjUIoSQ-26" style="edgeStyle=orthogonalEdgeStyle;rounded=0;orthogonalLoop=1;jettySize=auto;html=1;exitX=1;exitY=0.5;exitDx=0;exitDy=0;entryX=0;entryY=0.5;entryDx=0;entryDy=0;fontSize=16;startArrow=ERone;startFill=0;endArrow=ERzeroToMany;endFill=0;startSize=14;endSize=14;" edge="1" parent="1" source="NabtTSOFmGUarzjUIoSQ-1" target="NabtTSOFmGUarzjUIoSQ-8">
          <mxGeometry relative="1" as="geometry" />
        </mxCell>
        <mxCell id="NabtTSOFmGUarzjUIoSQ-27" style="edgeStyle=orthogonalEdgeStyle;rounded=0;orthogonalLoop=1;jettySize=auto;html=1;exitX=0.25;exitY=0;exitDx=0;exitDy=0;entryX=1;entryY=0.5;entryDx=0;entryDy=0;fontSize=16;startArrow=ERone;startFill=0;endArrow=ERzeroToMany;endFill=0;startSize=14;endSize=14;" edge="1" parent="1" source="NabtTSOFmGUarzjUIoSQ-1" target="NabtTSOFmGUarzjUIoSQ-5">
          <mxGeometry relative="1" as="geometry" />
        </mxCell>
        <mxCell id="NabtTSOFmGUarzjUIoSQ-28" style="edgeStyle=orthogonalEdgeStyle;rounded=0;orthogonalLoop=1;jettySize=auto;html=1;exitX=0.5;exitY=0;exitDx=0;exitDy=0;entryX=1;entryY=0.5;entryDx=0;entryDy=0;fontSize=16;startArrow=ERone;startFill=0;endArrow=ERzeroToMany;endFill=0;startSize=14;endSize=14;" edge="1" parent="1" source="NabtTSOFmGUarzjUIoSQ-1" target="NabtTSOFmGUarzjUIoSQ-2">
          <mxGeometry relative="1" as="geometry" />
        </mxCell>
        <mxCell id="NabtTSOFmGUarzjUIoSQ-1" value="admin_user" style="rounded=1;whiteSpace=wrap;html=1;fontSize=16;" vertex="1" parent="1">
          <mxGeometry x="400" y="330" width="120" height="60" as="geometry" />
        </mxCell>
        <mxCell id="NabtTSOFmGUarzjUIoSQ-2" value="banner&lt;span style=&quot;color: rgba(0 , 0 , 0 , 0) ; font-family: monospace ; font-size: 0px&quot;&gt;%3CmxGraphModel%3E%3Croot%3E%3CmxCell%20id%3D%220%22%2F%3E%3CmxCell%20id%3D%221%22%20parent%3D%220%22%2F%3E%3CmxCell%20id%3D%222%22%20value%3D%22admin_user%22%20style%3D%22rounded%3D1%3BwhiteSpace%3Dwrap%3Bhtml%3D1%3BfontSize%3D16%3B%22%20vertex%3D%221%22%20parent%3D%221%22%3E%3CmxGeometry%20x%3D%22350%22%20y%3D%2250%22%20width%3D%22120%22%20height%3D%2260%22%20as%3D%22geometry%22%2F%3E%3C%2FmxCell%3E%3C%2Froot%3E%3C%2FmxGraphModel%3E&lt;/span&gt;" style="rounded=1;whiteSpace=wrap;html=1;fontSize=16;" vertex="1" parent="1">
          <mxGeometry x="70" y="20" width="120" height="60" as="geometry" />
        </mxCell>
        <mxCell id="NabtTSOFmGUarzjUIoSQ-3" value="core_settings" style="rounded=1;whiteSpace=wrap;html=1;fontSize=16;" vertex="1" parent="1">
          <mxGeometry x="700" y="100" width="120" height="60" as="geometry" />
        </mxCell>
        <mxCell id="NabtTSOFmGUarzjUIoSQ-4" value="db_update" style="rounded=1;whiteSpace=wrap;html=1;fontSize=16;" vertex="1" parent="1">
          <mxGeometry x="700" y="20" width="120" height="60" as="geometry" />
        </mxCell>
        <mxCell id="NabtTSOFmGUarzjUIoSQ-16" style="edgeStyle=orthogonalEdgeStyle;rounded=0;orthogonalLoop=1;jettySize=auto;html=1;exitX=0.5;exitY=1;exitDx=0;exitDy=0;entryX=0;entryY=0.5;entryDx=0;entryDy=0;fontSize=16;endArrow=ERone;endFill=0;startArrow=ERoneToMany;startFill=0;endSize=14;startSize=14;" edge="1" parent="1" source="NabtTSOFmGUarzjUIoSQ-5" target="NabtTSOFmGUarzjUIoSQ-6">
          <mxGeometry relative="1" as="geometry" />
        </mxCell>
        <mxCell id="NabtTSOFmGUarzjUIoSQ-5" value="modal" style="rounded=1;whiteSpace=wrap;html=1;fontSize=16;" vertex="1" parent="1">
          <mxGeometry x="70" y="120" width="120" height="60" as="geometry" />
        </mxCell>
        <mxCell id="NabtTSOFmGUarzjUIoSQ-6" value="modal_type" style="rounded=1;whiteSpace=wrap;html=1;fontSize=16;" vertex="1" parent="1">
          <mxGeometry x="230" y="180" width="120" height="60" as="geometry" />
        </mxCell>
        <mxCell id="NabtTSOFmGUarzjUIoSQ-7" value="modal_view" style="rounded=1;whiteSpace=wrap;html=1;fontSize=16;" vertex="1" parent="1">
          <mxGeometry x="230" y="260" width="120" height="60" as="geometry" />
        </mxCell>
        <mxCell id="NabtTSOFmGUarzjUIoSQ-29" style="edgeStyle=orthogonalEdgeStyle;rounded=0;orthogonalLoop=1;jettySize=auto;html=1;entryX=0.5;entryY=1;entryDx=0;entryDy=0;fontSize=16;startArrow=ERone;startFill=0;endArrow=ERzeroToMany;endFill=0;startSize=14;endSize=14;exitX=0;exitY=0.5;exitDx=0;exitDy=0;" edge="1" parent="1" source="NabtTSOFmGUarzjUIoSQ-9" target="NabtTSOFmGUarzjUIoSQ-8">
          <mxGeometry relative="1" as="geometry">
            <mxPoint x="600" y="520" as="sourcePoint" />
          </mxGeometry>
        </mxCell>
        <mxCell id="NabtTSOFmGUarzjUIoSQ-8" value="product" style="rounded=1;whiteSpace=wrap;html=1;fontSize=16;" vertex="1" parent="1">
          <mxGeometry x="600" y="330" width="120" height="60" as="geometry" />
        </mxCell>
        <mxCell id="NabtTSOFmGUarzjUIoSQ-9" value="product_level" style="rounded=1;whiteSpace=wrap;html=1;fontSize=16;" vertex="1" parent="1">
          <mxGeometry x="720" y="410" width="120" height="60" as="geometry" />
        </mxCell>
        <mxCell id="NabtTSOFmGUarzjUIoSQ-10" value="voucher" style="rounded=1;whiteSpace=wrap;html=1;fontSize=16;" vertex="1" parent="1">
          <mxGeometry x="70" y="400" width="120" height="60" as="geometry" />
        </mxCell>
        <mxCell id="NabtTSOFmGUarzjUIoSQ-11" value="voucher_&lt;br&gt;age_group" style="rounded=1;whiteSpace=wrap;html=1;fontSize=16;" vertex="1" parent="1">
          <mxGeometry x="260" y="400" width="120" height="60" as="geometry" />
        </mxCell>
        <mxCell id="NabtTSOFmGUarzjUIoSQ-12" value="voucher_&lt;br&gt;availability_type" style="rounded=1;whiteSpace=wrap;html=1;fontSize=16;" vertex="1" parent="1">
          <mxGeometry x="220" y="470" width="120" height="60" as="geometry" />
        </mxCell>
        <mxCell id="NabtTSOFmGUarzjUIoSQ-24" style="edgeStyle=orthogonalEdgeStyle;rounded=0;orthogonalLoop=1;jettySize=auto;html=1;exitX=0.5;exitY=1;exitDx=0;exitDy=0;fontSize=16;startArrow=ERone;startFill=0;endArrow=ERzeroToMany;endFill=0;startSize=14;endSize=14;entryX=1;entryY=0.5;entryDx=0;entryDy=0;" edge="1" parent="1" source="NabtTSOFmGUarzjUIoSQ-1" target="NabtTSOFmGUarzjUIoSQ-13">
          <mxGeometry relative="1" as="geometry">
            <mxPoint x="590" y="470" as="targetPoint" />
          </mxGeometry>
        </mxCell>
        <mxCell id="NabtTSOFmGUarzjUIoSQ-13" value="voucher_code" style="rounded=1;whiteSpace=wrap;html=1;fontSize=16;" vertex="1" parent="1">
          <mxGeometry x="220" y="540" width="120" height="60" as="geometry" />
        </mxCell>
        <mxCell id="NabtTSOFmGUarzjUIoSQ-14" value="voucher_&lt;br&gt;code_warning&lt;span style=&quot;color: rgba(0 , 0 , 0 , 0) ; font-family: monospace ; font-size: 0px&quot;&gt;%3CmxGraphModel%3E%3Croot%3E%3CmxCell%20id%3D%220%22%2F%3E%3CmxCell%20id%3D%221%22%20parent%3D%220%22%2F%3E%3CmxCell%20id%3D%222%22%20value%3D%22admin_user%22%20style%3D%22rounded%3D1%3BwhiteSpace%3Dwrap%3Bhtml%3D1%3BfontSize%3D16%3B%22%20vertex%3D%221%22%20parent%3D%221%22%3E%3CmxGeometry%20x%3D%22350%22%20y%3D%2250%22%20width%3D%22120%22%20height%3D%2260%22%20as%3D%22geometry%22%2F%3E%3C%2FmxCell%3E%3C%2Froot%3E%3C%2FmxGraphModel%3E&lt;/span&gt;" style="rounded=1;whiteSpace=wrap;html=1;fontSize=16;" vertex="1" parent="1">
          <mxGeometry x="220" y="610" width="120" height="60" as="geometry" />
        </mxCell>
        <mxCell id="NabtTSOFmGUarzjUIoSQ-15" value="voucher_history" style="rounded=1;whiteSpace=wrap;html=1;fontSize=16;" vertex="1" parent="1">
          <mxGeometry x="220" y="680" width="120" height="60" as="geometry" />
        </mxCell>
        <mxCell id="NabtTSOFmGUarzjUIoSQ-17" style="edgeStyle=orthogonalEdgeStyle;rounded=0;orthogonalLoop=1;jettySize=auto;html=1;exitX=0;exitY=0.5;exitDx=0;exitDy=0;entryX=0.25;entryY=1;entryDx=0;entryDy=0;fontSize=16;endArrow=ERone;endFill=0;startArrow=ERzeroToMany;startFill=0;endSize=14;startSize=14;" edge="1" parent="1" source="NabtTSOFmGUarzjUIoSQ-7" target="NabtTSOFmGUarzjUIoSQ-5">
          <mxGeometry relative="1" as="geometry">
            <mxPoint x="140" y="190" as="sourcePoint" />
            <mxPoint x="240" y="220" as="targetPoint" />
          </mxGeometry>
        </mxCell>
        <mxCell id="NabtTSOFmGUarzjUIoSQ-18" style="edgeStyle=orthogonalEdgeStyle;rounded=0;orthogonalLoop=1;jettySize=auto;html=1;exitX=0.75;exitY=1;exitDx=0;exitDy=0;entryX=0;entryY=0.5;entryDx=0;entryDy=0;fontSize=16;endArrow=ERone;endFill=0;startArrow=ERoneToMany;startFill=0;endSize=14;startSize=14;" edge="1" parent="1" source="NabtTSOFmGUarzjUIoSQ-10" target="NabtTSOFmGUarzjUIoSQ-12">
          <mxGeometry relative="1" as="geometry">
            <mxPoint x="140" y="190" as="sourcePoint" />
            <mxPoint x="240" y="220" as="targetPoint" />
          </mxGeometry>
        </mxCell>
        <mxCell id="NabtTSOFmGUarzjUIoSQ-19" style="edgeStyle=orthogonalEdgeStyle;rounded=0;orthogonalLoop=1;jettySize=auto;html=1;fontSize=16;endArrow=ERone;endFill=0;startArrow=ERoneToMany;startFill=0;endSize=14;startSize=14;entryX=0.5;entryY=1;entryDx=0;entryDy=0;exitX=0;exitY=0.5;exitDx=0;exitDy=0;" edge="1" parent="1" source="NabtTSOFmGUarzjUIoSQ-13" target="NabtTSOFmGUarzjUIoSQ-10">
          <mxGeometry relative="1" as="geometry">
            <mxPoint x="210" y="680" as="sourcePoint" />
            <mxPoint x="100" y="630" as="targetPoint" />
          </mxGeometry>
        </mxCell>
        <mxCell id="NabtTSOFmGUarzjUIoSQ-20" style="edgeStyle=orthogonalEdgeStyle;rounded=0;orthogonalLoop=1;jettySize=auto;html=1;exitX=0;exitY=0.5;exitDx=0;exitDy=0;entryX=0.067;entryY=0.983;entryDx=0;entryDy=0;fontSize=16;endArrow=ERone;endFill=0;startArrow=ERoneToMany;startFill=0;endSize=14;startSize=14;entryPerimeter=0;" edge="1" parent="1" source="NabtTSOFmGUarzjUIoSQ-15" target="NabtTSOFmGUarzjUIoSQ-10">
          <mxGeometry relative="1" as="geometry">
            <mxPoint x="180" y="480" as="sourcePoint" />
            <mxPoint x="240" y="520" as="targetPoint" />
          </mxGeometry>
        </mxCell>
        <mxCell id="NabtTSOFmGUarzjUIoSQ-21" style="edgeStyle=orthogonalEdgeStyle;rounded=0;orthogonalLoop=1;jettySize=auto;html=1;exitX=0;exitY=0.5;exitDx=0;exitDy=0;entryX=0.25;entryY=1;entryDx=0;entryDy=0;fontSize=16;endArrow=ERone;endFill=0;startArrow=ERoneToMany;startFill=0;endSize=14;startSize=14;" edge="1" parent="1" source="NabtTSOFmGUarzjUIoSQ-14" target="NabtTSOFmGUarzjUIoSQ-10">
          <mxGeometry relative="1" as="geometry">
            <mxPoint x="190" y="490" as="sourcePoint" />
            <mxPoint x="250" y="530" as="targetPoint" />
          </mxGeometry>
        </mxCell>
        <mxCell id="NabtTSOFmGUarzjUIoSQ-23" style="edgeStyle=orthogonalEdgeStyle;rounded=0;orthogonalLoop=1;jettySize=auto;html=1;exitX=1;exitY=0.5;exitDx=0;exitDy=0;entryX=0;entryY=0.5;entryDx=0;entryDy=0;fontSize=16;endArrow=ERone;endFill=0;startArrow=ERzeroToMany;startFill=0;endSize=14;startSize=14;" edge="1" parent="1" source="NabtTSOFmGUarzjUIoSQ-10" target="NabtTSOFmGUarzjUIoSQ-11">
          <mxGeometry relative="1" as="geometry">
            <mxPoint x="210" y="510" as="sourcePoint" />
            <mxPoint x="270" y="550" as="targetPoint" />
          </mxGeometry>
        </mxCell>
      </root>
    </mxGraphModel>
  </diagram>
</mxfile>
